<svg id="Layer_1" data-name="Layer 1" xmlns="http://www.w3.org/2000/svg" viewBox="0 0 423.81 424.66"><title>twitter-icon</title><g id="Twitter"><circle id="asdfasdfasdf" cx="211.9" cy="212.33" r="211.9" style="fill:#1da1f2"/><path id="asdfasdf" d="M168.15,347.82c112.46,0,174-93.17,174-174q0-4-.17-7.9a124.34,124.34,0,0,0,30.5-31.66,121.92,121.92,0,0,1-35.11,9.63,61.36,61.36,0,0,0,26.89-33.82,122.62,122.62,0,0,1-38.82,14.84A61.19,61.19,0,0,0,221.19,180.7a173.61,173.61,0,0,1-126-63.88,61.19,61.19,0,0,0,18.93,81.62,60.68,60.68,0,0,1-27.69-7.65c0,.26,0,.51,0,.78a61.16,61.16,0,0,0,49.05,59.93,61,61,0,0,1-27.61,1A61.2,61.2,0,0,0,164.95,295,122.65,122.65,0,0,1,89,321.19a124.18,124.18,0,0,1-14.58-.85,173.07,173.07,0,0,0,93.72,27.46" style="fill:#fff"/></g></svg>